<?xml version="1.0" encoding="UTF-8" standalone="no"?>
<!DOCTYPE svg PUBLIC "-//W3C//DTD SVG 20010904//EN"
              "http://www.w3.org/TR/2001/REC-SVG-20010904/DTD/svg10.dtd">

<svg xmlns="http://www.w3.org/2000/svg"
     width="11.9444in" height="11.2917in"
     viewBox="0 0 860 813">
  <path id="Copia de Sin nombre #1"
        fill="none" stroke="black" stroke-width="1"
        d="M 760.00,340.00
           C 747.96,376.39 723.00,410.00 723.00,410.00
             723.00,410.00 703.23,441.65 672.00,472.00
             632.67,510.23 584.00,549.00 584.00,549.00
             584.00,549.00 560.95,563.48 539.00,597.00
             514.59,634.28 488.00,682.00 488.00,682.00
             488.00,682.00 471.12,698.14 458.00,713.00
             444.62,728.14 429.00,731.00 429.00,731.00
             429.00,731.00 409.14,723.53 393.00,715.00
             374.32,705.13 367.00,691.00 367.00,691.00
             367.00,691.00 351.52,672.43 341.00,660.00
             329.55,646.47 315.00,635.00 315.00,635.00
             315.00,635.00 290.22,665.48 271.00,668.00
             248.48,670.95 199.00,670.00 199.00,670.00
             199.00,670.00 185.33,638.58 149.00,608.00
             106.77,572.46 68.00,532.00 68.00,532.00
             68.00,532.00 65.25,517.96 65.00,506.00
             64.75,494.47 99.00,476.00 99.00,476.00
             99.00,476.00 214.00,399.00 214.00,399.00
             214.00,399.00 223.07,390.93 226.00,381.00
             229.51,369.11 240.00,353.00 240.00,353.00
             240.00,353.00 221.11,337.85 204.00,327.00
             180.99,312.41 128.00,285.00 128.00,285.00
             128.00,285.00 120.00,280.66 105.00,257.00
             95.09,241.37 110.00,227.00 110.00,227.00
             110.00,227.00 105.83,219.25 107.00,212.00
             108.32,203.81 122.00,199.00 122.00,199.00
             122.00,199.00 145.05,201.44 159.00,197.00
             177.42,191.14 181.00,173.00 181.00,173.00
             181.00,173.00 187.77,154.63 188.00,130.00
             188.12,116.43 172.63,100.63 171.00,89.00
             169.09,75.40 179.00,75.00 179.00,75.00
             179.00,75.00 205.26,86.03 219.00,94.00
             271.23,124.29 368.00,188.00 368.00,188.00
             368.00,188.00 394.47,201.37 415.00,213.00
             435.96,224.87 454.00,242.00 454.00,242.00
             454.00,242.00 492.06,253.65 513.00,277.00
             535.50,302.09 545.00,340.00 545.00,340.00
             545.00,340.00 559.54,346.37 572.00,350.00
             583.50,353.36 604.00,337.00 604.00,337.00
             604.00,337.00 613.26,323.53 627.00,297.00
             642.19,267.67 641.00,222.00 641.00,222.00
             641.00,222.00 653.39,208.15 666.00,203.00
             677.87,198.16 704.00,201.00 704.00,201.00
             704.00,201.00 734.01,211.58 750.00,223.00
             768.78,236.42 776.00,262.00 776.00,262.00
             776.00,262.00 771.44,305.44 760.00,340.00 Z" />
</svg>
