<?xml version="1.0" encoding="UTF-8" standalone="no"?>
<!DOCTYPE svg PUBLIC "-//W3C//DTD SVG 20010904//EN"
              "http://www.w3.org/TR/2001/REC-SVG-20010904/DTD/svg10.dtd">

<svg xmlns="http://www.w3.org/2000/svg"
     width="11.9444in" height="11.2917in"
     viewBox="0 0 860 813">
  <path id="Copia de Sin nombre"
        fill="none" stroke="black" stroke-width="1"
        d="M 727.00,360.00
           C 714.96,396.39 703.00,404.00 703.00,404.00
             703.00,404.00 692.23,420.65 661.00,451.00
             621.67,489.23 574.00,538.00 574.00,538.00
             574.00,538.00 536.95,560.48 515.00,594.00
             490.59,631.28 468.00,679.00 468.00,679.00
             468.00,679.00 481.12,721.14 468.00,736.00
             454.62,751.14 428.00,750.00 428.00,750.00
             428.00,750.00 407.14,750.53 391.00,742.00
             372.32,732.13 350.00,710.00 350.00,710.00
             350.00,710.00 356.52,671.43 346.00,659.00
             334.55,645.47 315.00,637.00 315.00,637.00
             315.00,637.00 294.22,639.48 275.00,642.00
             252.48,644.95 230.00,650.00 230.00,650.00
             230.00,650.00 188.33,636.58 152.00,606.00
             109.77,570.46 81.00,526.00 81.00,526.00
             81.00,526.00 79.25,517.96 79.00,506.00
             78.75,494.47 97.00,482.00 97.00,482.00
             97.00,482.00 213.00,388.00 213.00,388.00
             213.00,388.00 219.07,382.93 222.00,373.00
             225.51,361.11 206.00,356.00 206.00,356.00
             206.00,356.00 185.11,347.85 168.00,337.00
             144.99,322.41 119.00,296.00 119.00,296.00
             119.00,296.00 104.00,280.66 89.00,257.00
             79.09,241.37 79.00,226.00 79.00,226.00
             79.00,226.00 81.83,208.25 83.00,201.00
             84.32,192.81 111.00,175.00 111.00,175.00
             111.00,175.00 127.05,174.44 141.00,170.00
             159.42,164.14 164.00,152.00 164.00,152.00
             164.00,152.00 162.77,132.63 163.00,108.00
             163.12,94.43 149.63,87.63 148.00,76.00
             146.09,62.40 178.00,43.00 178.00,43.00
             178.00,43.00 216.26,59.03 230.00,67.00
             271.08,110.56 381.48,189.15 390.00,179.00
             390.00,179.00 405.47,184.37 426.00,196.00
             446.96,207.87 466.00,223.00 466.00,223.00
             466.00,223.00 488.06,243.65 509.00,267.00
             531.50,292.09 543.00,318.00 543.00,318.00
             543.00,318.00 552.54,347.37 565.00,351.00
             576.50,354.36 609.00,346.00 609.00,346.00
             609.00,346.00 620.26,320.53 634.00,294.00
             649.19,264.67 659.00,226.00 659.00,226.00
             659.00,226.00 667.39,226.15 680.00,221.00
             691.87,216.16 713.00,235.00 713.00,235.00
             713.00,235.00 733.01,245.58 749.00,257.00
             767.78,270.42 753.00,288.00 753.00,288.00
             753.00,288.00 738.44,325.44 727.00,360.00 Z" />
</svg>
