<?xml version="1.0" encoding="UTF-8" standalone="no"?>
<!DOCTYPE svg PUBLIC "-//W3C//DTD SVG 20010904//EN"
              "http://www.w3.org/TR/2001/REC-SVG-20010904/DTD/svg10.dtd">

<svg xmlns="http://www.w3.org/2000/svg"
     width="11.9444in" height="11.2917in"
     viewBox="0 0 860 813">
  <path id="Sin nombre"
        fill="none" stroke="black" stroke-width="1"
        d="M 753.00,335.00
           C 740.96,371.39 717.00,399.00 717.00,399.00
             717.00,399.00 695.23,433.65 664.00,464.00
             624.67,502.23 574.00,538.00 574.00,538.00
             574.00,538.00 546.95,562.48 525.00,596.00
             500.59,633.28 481.00,680.00 481.00,680.00
             481.00,680.00 475.12,706.14 462.00,721.00
             448.62,736.14 428.00,740.00 428.00,740.00
             428.00,740.00 407.14,739.53 391.00,731.00
             372.32,721.13 358.00,703.00 358.00,703.00
             358.00,703.00 352.52,680.43 342.00,668.00
             330.55,654.47 314.00,651.00 314.00,651.00
             314.00,651.00 293.22,653.48 274.00,656.00
             251.48,658.95 230.00,662.00 230.00,662.00
             230.00,662.00 183.33,649.58 147.00,619.00
             104.77,583.46 72.00,529.00 72.00,529.00
             72.00,529.00 65.25,517.96 65.00,506.00
             64.75,494.47 71.00,482.00 71.00,482.00
             71.00,482.00 218.00,404.00 218.00,404.00
             218.00,404.00 229.07,395.93 232.00,386.00
             235.51,374.11 231.00,360.00 231.00,360.00
             231.00,360.00 222.11,347.85 205.00,337.00
             181.99,322.41 149.00,308.00 149.00,308.00
             149.00,308.00 120.00,280.66 105.00,257.00
             95.09,241.37 97.00,226.00 97.00,226.00
             97.00,226.00 90.83,220.25 92.00,213.00
             93.32,204.81 102.00,195.00 102.00,195.00
             102.00,195.00 125.05,198.44 139.00,194.00
             157.42,188.14 168.00,174.00 168.00,174.00
             168.00,174.00 175.77,152.63 176.00,128.00
             176.12,114.43 159.63,96.63 158.00,85.00
             156.09,71.40 169.00,65.00 169.00,65.00
             169.00,65.00 189.26,62.03 203.00,70.00
             255.23,100.29 369.00,181.00 369.00,181.00
             369.00,181.00 393.47,188.37 414.00,200.00
             434.96,211.87 452.00,228.00 452.00,228.00
             452.00,228.00 479.06,252.65 500.00,276.00
             522.50,301.09 539.00,325.00 539.00,325.00
             539.00,325.00 549.54,333.37 562.00,337.00
             573.50,340.36 587.00,339.00 587.00,339.00
             587.00,339.00 602.26,320.53 616.00,294.00
             631.19,264.67 645.00,227.00 645.00,227.00
             645.00,227.00 651.39,213.15 664.00,208.00
             675.87,203.16 694.00,207.00 694.00,207.00
             694.00,207.00 718.01,211.58 734.00,223.00
             752.78,236.42 764.00,257.00 764.00,257.00
             764.00,257.00 764.44,300.44 753.00,335.00 Z" />
</svg>
